<?xml version='1.0' encoding='utf-8'?>
<svg xmlns="http://www.w3.org/2000/svg" width="960" height="540" viewBox="0 0 960 540" role="img" aria-labelledby="title desc">
  <title id="title">Category comparison / bars</title>
  <desc id="desc">Illustrative units • zero baseline • direct value labels</desc>
  <rect x="0" y="0" width="960" height="540" fill="#0A1924" />
  <text x="36" y="52" fill="#FCFDF7" font-family="Arial, sans-serif" font-size="26">Category comparison / bars</text>
  <text x="36" y="84" fill="#C38651" font-family="Arial, sans-serif" font-size="15">Illustrative units • zero baseline • direct value labels</text>
  <rect x="95" y="115" width="810" height="310" fill="#18222A" />
  <line x1="95" y1="420.0" x2="905" y2="420.0" stroke="#A66B35" stroke-width="1" />
  <text x="60" y="425.0" fill="#C38651" font-family="Arial, sans-serif" font-size="15">0</text>
  <line x1="95" y1="350.0" x2="905" y2="350.0" stroke="#A66B35" stroke-width="1" />
  <text x="60" y="355.0" fill="#C38651" font-family="Arial, sans-serif" font-size="15">20</text>
  <line x1="95" y1="280.0" x2="905" y2="280.0" stroke="#A66B35" stroke-width="1" />
  <text x="60" y="285.0" fill="#C38651" font-family="Arial, sans-serif" font-size="15">40</text>
  <line x1="95" y1="210.0" x2="905" y2="210.0" stroke="#A66B35" stroke-width="1" />
  <text x="60" y="215.0" fill="#C38651" font-family="Arial, sans-serif" font-size="15">60</text>
  <line x1="95" y1="140.0" x2="905" y2="140.0" stroke="#A66B35" stroke-width="1" />
  <text x="60" y="145.0" fill="#C38651" font-family="Arial, sans-serif" font-size="15">80</text>
  <rect x="150" y="322.0" width="100" height="98.0" fill="#F8C265" />
  <text x="200" y="307.0" fill="#FCFDF7" font-family="Arial, sans-serif" font-size="18" text-anchor="middle">28</text>
  <text x="200" y="455" fill="#FCFDF7" font-family="Arial, sans-serif" font-size="18" text-anchor="middle">A</text>
  <rect x="340" y="266.0" width="100" height="154.0" fill="#4A6E8D" />
  <text x="390" y="251.0" fill="#FCFDF7" font-family="Arial, sans-serif" font-size="18" text-anchor="middle">44</text>
  <text x="390" y="455" fill="#FCFDF7" font-family="Arial, sans-serif" font-size="18" text-anchor="middle">B</text>
  <rect x="530" y="294.0" width="100" height="126.0" fill="#89B2A7" />
  <text x="580" y="279.0" fill="#FCFDF7" font-family="Arial, sans-serif" font-size="18" text-anchor="middle">36</text>
  <text x="580" y="455" fill="#FCFDF7" font-family="Arial, sans-serif" font-size="18" text-anchor="middle">C</text>
  <rect x="720" y="203.0" width="100" height="217.0" fill="#4A6E8D" />
  <text x="770" y="188.0" fill="#FCFDF7" font-family="Arial, sans-serif" font-size="18" text-anchor="middle">62</text>
  <text x="770" y="455" fill="#FCFDF7" font-family="Arial, sans-serif" font-size="18" text-anchor="middle">D</text>
</svg>